<?xml version="1.0" encoding="UTF-8"?>
<svg version="1.1" xmlns="http://www.w3.org/2000/svg" width="16" height="16">
<path d="M0 0 C5.28 0 10.56 0 16 0 C16 5.28 16 10.56 16 16 C10.72 16 5.44 16 0 16 C0 10.72 0 5.44 0 0 Z " fill="#E5F5FD" transform="translate(0,0)"/>
<path d="M0 0 C0.99 0 1.98 0 3 0 C3 2.64 3 5.28 3 8 C-1.95 8 -6.9 8 -12 8 C-12 6.68 -12 5.36 -12 4 C-8.26562152 3.12132271 -4.83225427 2.91087781 -1 3 C-0.67 2.01 -0.34 1.02 0 0 Z " fill="#A15F44" transform="translate(12,8)"/>
<path d="M0 0 C5.28 0 10.56 0 16 0 C15.67 1.32 15.34 2.64 15 4 C14.34 3.67 13.68 3.34 13 3 C13 2.34 13 1.68 13 1 C11.68 1 10.36 1 9 1 C8.67 2.65 8.34 4.3 8 6 C7.05125 5.979375 6.1025 5.95875 5.125 5.9375 C2.09333717 5.77448174 2.09333717 5.77448174 0 7 C0 4.69 0 2.38 0 0 Z " fill="#41C8FB" transform="translate(0,0)"/>
<path d="M0 0 C1.1446875 0.2784375 1.1446875 0.2784375 2.3125 0.5625 C5.08967375 1.22819173 5.08967375 1.22819173 8 0 C8 0.66 8 1.32 8 2 C9.32 2.33 10.64 2.66 12 3 C11 4 11 4 8.49609375 4.09765625 C6.98208984 4.08025391 6.98208984 4.08025391 5.4375 4.0625 C4.42558594 4.05347656 3.41367187 4.04445313 2.37109375 4.03515625 C1.58863281 4.02355469 0.80617187 4.01195312 0 4 C0 2.68 0 1.36 0 0 Z " fill="#A1CDDD" transform="translate(0,8)"/>
</svg>
